<svg width="101" height="18" viewBox="0 0 101 18" fill="none" xmlns="http://www.w3.org/2000/svg"><g clip-path="url(#a)" fill="#111"><path d="M1.3 16.5A6.9 6.9 0 0 1 0 12.2V5.8a7 7 0 0 1 1.2-4.3C2 .5 3.4 0 5.4 0s3.2.5 4 1.3c.9 1 1.3 2.4 1.2 3.8v1.5H6.7V4.8c0-.5 0-1-.2-1.5L6 2.8l-.6-.1c-.6 0-1 .1-1.1.5C4 3.8 4 4.3 4 5v8.3l.3 1.6c.2.4.6.5 1.2.5.5 0 .8-.1 1-.5.2-.6.2-1.1.2-1.6v-1.9h3.9v1.5c0 1.4-.3 2.8-1.2 3.9-.8 1-2.1 1.4-4 1.4-2-.1-3.3-.6-4.1-1.6ZM15.3.2h4.5L23 17.8h-3.7l-.6-3.7h-2.6l-.6 3.7h-3.7L15.3.2Zm3.2 11.6-1-6.9-.9 6.9h1.9ZM25.8 3.2h-2.6v-3h9.4v2.9h-2.7v14.7h-4V3.2ZM39.8.2h7v1.9h-4.6v5.7h3.6v1.8h-3.6v6.5h4.5v1.7h-7V.2ZM48.8.2h1.7l5.1 11.6V.2h2v17.6h-1.5L51 5.8v12h-2.1V.2ZM60 .2h7v1.9h-4.5v5.7h3.6v1.8h-3.6v6.5H67v1.7h-7V.2ZM69 .2h3.7c1.4 0 2.9.3 4 1.1 1 .7 1.3 2 1.3 3.5 0 2.3-.7 3.7-2.2 4.1l2.5 8.8H76l-2.4-8.2h-2v8.2H69V.2Zm3.5 7.6c.9 0 1.7-.2 2.3-.6.5-.4.8-1.2.8-2.4 0-.5-.1-1.1-.3-1.6a2 2 0 0 0-.9-1C74 2 73.3 2 72.7 2h-1.1v5.8h1ZM81.2 16.5A7.6 7.6 0 0 1 80 12V6.2c0-1.2 0-2.3.4-3.4a4 4 0 0 1 1.5-2c.8-.5 1.9-.7 2.9-.6 1.6 0 2.8.3 3.5 1.2a5.8 5.8 0 0 1 1.1 3.8v.6h-2.3v-.5c0-.6 0-1.3-.2-2 0-.3-.3-.7-.6-1L84.9 2c-.6 0-1.1.1-1.6.5a1.7 1.7 0 0 0-.6 1.2 14 14 0 0 0-.2 2v6.6c0 1 .1 2 .5 3 .3.5 1 .8 1.9.8a2 2 0 0 0 1.9-1c.4-1 .6-2 .5-3v-1.3H85V9.1h4.6v8.7H88l-.2-2c-.2.6-.6 1.2-1.2 1.6-.6.4-1.3.6-2 .6a4 4 0 0 1-3.4-1.5ZM94.7 11.6 90.8.3h2.4l2.7 8.5L98.6.3h2.4l-3.9 11.3v6.2h-2.3v-6.2h-.1Z"/></g><defs><clipPath id="a"><path fill="#fff" d="M0 0h101v18H0z"/></clipPath></defs></svg>